<mxfile host="app.diagrams.net" modified="2024-03-14T23:28:14.121Z" agent="Mozilla/5.0 (Macintosh; Intel Mac OS X 10_15_7) AppleWebKit/537.36 (KHTML, like Gecko) Chrome/122.0.0.0 Safari/537.36" etag="8hO3eS6tmRnFW7Xw_EJZ" version="24.0.6" type="device">
  <diagram name="Strona-1" id="GeK9WuyUUhruGW9Or8sT">
    <mxGraphModel dx="3574" dy="1314" grid="1" gridSize="10" guides="1" tooltips="1" connect="1" arrows="1" fold="1" page="1" pageScale="1" pageWidth="1654" pageHeight="2336" math="0" shadow="0">
      <root>
        <mxCell id="0" />
        <mxCell id="1" parent="0" />
        <mxCell id="bgKrArl3KTBkpDc7wlW8-95" value="" style="rounded=0;whiteSpace=wrap;html=1;" parent="1" vertex="1">
          <mxGeometry x="-20" y="20" width="2040" height="1260" as="geometry" />
        </mxCell>
        <mxCell id="bgKrArl3KTBkpDc7wlW8-91" style="edgeStyle=orthogonalEdgeStyle;rounded=0;orthogonalLoop=1;jettySize=auto;html=1;entryX=0.5;entryY=0;entryDx=0;entryDy=0;exitX=0.16;exitY=0.55;exitDx=0;exitDy=0;exitPerimeter=0;" parent="1" source="bgKrArl3KTBkpDc7wlW8-2" target="bgKrArl3KTBkpDc7wlW8-64" edge="1">
          <mxGeometry relative="1" as="geometry">
            <Array as="points">
              <mxPoint x="110" y="147" />
            </Array>
          </mxGeometry>
        </mxCell>
        <mxCell id="bgKrArl3KTBkpDc7wlW8-93" style="edgeStyle=orthogonalEdgeStyle;rounded=0;orthogonalLoop=1;jettySize=auto;html=1;entryX=0.456;entryY=-0.03;entryDx=0;entryDy=0;entryPerimeter=0;" parent="1" source="bgKrArl3KTBkpDc7wlW8-2" target="bgKrArl3KTBkpDc7wlW8-6" edge="1">
          <mxGeometry relative="1" as="geometry" />
        </mxCell>
        <mxCell id="bgKrArl3KTBkpDc7wlW8-2" value="&lt;font style=&quot;font-size: 16px;&quot;&gt;&lt;b&gt;Buses Data Source&lt;br&gt;API&lt;/b&gt;&lt;br&gt;&lt;/font&gt;" style="ellipse;shape=cloud;whiteSpace=wrap;html=1;fillColor=#e1d5e7;strokeColor=#9673a6;" parent="1" vertex="1">
          <mxGeometry x="110" y="70" width="220" height="140" as="geometry" />
        </mxCell>
        <mxCell id="bgKrArl3KTBkpDc7wlW8-37" style="edgeStyle=orthogonalEdgeStyle;rounded=0;orthogonalLoop=1;jettySize=auto;html=1;entryX=0;entryY=0.5;entryDx=0;entryDy=0;" parent="1" source="bgKrArl3KTBkpDc7wlW8-6" target="bgKrArl3KTBkpDc7wlW8-11" edge="1">
          <mxGeometry relative="1" as="geometry">
            <Array as="points">
              <mxPoint x="230" y="560" />
            </Array>
          </mxGeometry>
        </mxCell>
        <mxCell id="bgKrArl3KTBkpDc7wlW8-105" style="edgeStyle=orthogonalEdgeStyle;rounded=0;orthogonalLoop=1;jettySize=auto;html=1;entryX=0;entryY=0.5;entryDx=0;entryDy=0;dashed=1;dashPattern=1 4;" parent="1" source="bgKrArl3KTBkpDc7wlW8-6" target="bgKrArl3KTBkpDc7wlW8-99" edge="1">
          <mxGeometry relative="1" as="geometry">
            <Array as="points">
              <mxPoint x="510" y="385" />
              <mxPoint x="510" y="160" />
            </Array>
          </mxGeometry>
        </mxCell>
        <mxCell id="bgKrArl3KTBkpDc7wlW8-107" style="edgeStyle=orthogonalEdgeStyle;rounded=0;orthogonalLoop=1;jettySize=auto;html=1;entryX=0;entryY=0.5;entryDx=0;entryDy=0;dashed=1;dashPattern=1 4;" parent="1" source="bgKrArl3KTBkpDc7wlW8-26" target="bgKrArl3KTBkpDc7wlW8-99" edge="1">
          <mxGeometry relative="1" as="geometry">
            <Array as="points">
              <mxPoint x="1040" y="921" />
              <mxPoint x="1040" y="160" />
            </Array>
          </mxGeometry>
        </mxCell>
        <mxCell id="sFMfwij8IVC0QrUWegLS-5" style="edgeStyle=orthogonalEdgeStyle;rounded=0;orthogonalLoop=1;jettySize=auto;html=1;entryX=0.998;entryY=0.152;entryDx=0;entryDy=0;entryPerimeter=0;dashed=1;dashPattern=1 4;" edge="1" parent="1" source="bgKrArl3KTBkpDc7wlW8-70" target="bgKrArl3KTBkpDc7wlW8-99">
          <mxGeometry relative="1" as="geometry">
            <Array as="points">
              <mxPoint x="1050" y="1180" />
              <mxPoint x="1870" y="1180" />
              <mxPoint x="1870" y="70" />
            </Array>
          </mxGeometry>
        </mxCell>
        <mxCell id="bgKrArl3KTBkpDc7wlW8-30" value="" style="rounded=0;whiteSpace=wrap;html=1;" parent="1" vertex="1">
          <mxGeometry x="350" y="525" width="650" height="285" as="geometry" />
        </mxCell>
        <mxCell id="bgKrArl3KTBkpDc7wlW8-29" value="" style="rounded=0;whiteSpace=wrap;html=1;" parent="1" vertex="1">
          <mxGeometry x="340" y="520" width="650" height="280" as="geometry" />
        </mxCell>
        <mxCell id="bgKrArl3KTBkpDc7wlW8-6" value="&lt;font style=&quot;font-size: 18px;&quot;&gt;&lt;b&gt;Unmanaged scrapers&lt;/b&gt;&lt;/font&gt;" style="rounded=1;whiteSpace=wrap;html=1;" parent="1" vertex="1">
          <mxGeometry x="120" y="330" width="220" height="110" as="geometry" />
        </mxCell>
        <mxCell id="bgKrArl3KTBkpDc7wlW8-38" style="edgeStyle=orthogonalEdgeStyle;rounded=0;orthogonalLoop=1;jettySize=auto;html=1;entryX=0;entryY=0.6;entryDx=0;entryDy=0;entryPerimeter=0;" parent="1" source="bgKrArl3KTBkpDc7wlW8-11" target="bgKrArl3KTBkpDc7wlW8-27" edge="1">
          <mxGeometry relative="1" as="geometry" />
        </mxCell>
        <mxCell id="bgKrArl3KTBkpDc7wlW8-22" value="" style="rounded=0;whiteSpace=wrap;html=1;" parent="1" vertex="1">
          <mxGeometry x="330" y="510" width="650" height="280" as="geometry" />
        </mxCell>
        <mxCell id="bgKrArl3KTBkpDc7wlW8-82" style="edgeStyle=orthogonalEdgeStyle;rounded=0;orthogonalLoop=1;jettySize=auto;html=1;entryX=0;entryY=0.5;entryDx=0;entryDy=0;" parent="1" source="bgKrArl3KTBkpDc7wlW8-11" target="bgKrArl3KTBkpDc7wlW8-81" edge="1">
          <mxGeometry relative="1" as="geometry">
            <Array as="points">
              <mxPoint x="655" y="340" />
              <mxPoint x="1710" y="340" />
              <mxPoint x="1710" y="560" />
            </Array>
          </mxGeometry>
        </mxCell>
        <mxCell id="bgKrArl3KTBkpDc7wlW8-11" value="" style="shape=step;perimeter=stepPerimeter;whiteSpace=wrap;html=1;fixedSize=1;" parent="1" vertex="1">
          <mxGeometry x="340" y="520" width="630" height="80" as="geometry" />
        </mxCell>
        <mxCell id="bgKrArl3KTBkpDc7wlW8-13" value="" style="shape=note;whiteSpace=wrap;html=1;backgroundOutline=1;darkOpacity=0.05;" parent="1" vertex="1">
          <mxGeometry x="370" y="525" width="50" height="70" as="geometry" />
        </mxCell>
        <mxCell id="bgKrArl3KTBkpDc7wlW8-14" value="" style="shape=note;whiteSpace=wrap;html=1;backgroundOutline=1;darkOpacity=0.05;" parent="1" vertex="1">
          <mxGeometry x="440" y="525" width="50" height="70" as="geometry" />
        </mxCell>
        <mxCell id="bgKrArl3KTBkpDc7wlW8-15" value="" style="shape=note;whiteSpace=wrap;html=1;backgroundOutline=1;darkOpacity=0.05;" parent="1" vertex="1">
          <mxGeometry x="510" y="525" width="50" height="70" as="geometry" />
        </mxCell>
        <mxCell id="bgKrArl3KTBkpDc7wlW8-17" value="" style="endArrow=none;dashed=1;html=1;dashPattern=1 3;strokeWidth=2;rounded=0;" parent="1" edge="1">
          <mxGeometry width="50" height="50" relative="1" as="geometry">
            <mxPoint x="580" y="594" as="sourcePoint" />
            <mxPoint x="740" y="594" as="targetPoint" />
          </mxGeometry>
        </mxCell>
        <mxCell id="bgKrArl3KTBkpDc7wlW8-18" value="" style="shape=note;whiteSpace=wrap;html=1;backgroundOutline=1;darkOpacity=0.05;" parent="1" vertex="1">
          <mxGeometry x="750" y="525" width="50" height="70" as="geometry" />
        </mxCell>
        <mxCell id="bgKrArl3KTBkpDc7wlW8-19" value="" style="shape=note;whiteSpace=wrap;html=1;backgroundOutline=1;darkOpacity=0.05;" parent="1" vertex="1">
          <mxGeometry x="820" y="525" width="50" height="70" as="geometry" />
        </mxCell>
        <mxCell id="bgKrArl3KTBkpDc7wlW8-20" value="" style="shape=note;whiteSpace=wrap;html=1;backgroundOutline=1;darkOpacity=0.05;" parent="1" vertex="1">
          <mxGeometry x="890" y="525" width="50" height="70" as="geometry" />
        </mxCell>
        <mxCell id="bgKrArl3KTBkpDc7wlW8-23" value="&lt;b&gt;&lt;font style=&quot;font-size: 22px;&quot;&gt;&lt;u&gt;Apache Kafka&lt;/u&gt;&lt;/font&gt;&lt;/b&gt;" style="text;html=1;strokeColor=none;fillColor=none;align=center;verticalAlign=middle;whiteSpace=wrap;rounded=0;" parent="1" vertex="1">
          <mxGeometry x="800" y="480" width="180" height="30" as="geometry" />
        </mxCell>
        <mxCell id="bgKrArl3KTBkpDc7wlW8-25" value="" style="endArrow=classic;html=1;rounded=0;exitX=0.5;exitY=1;exitDx=0;exitDy=0;" parent="1" source="bgKrArl3KTBkpDc7wlW8-11" edge="1">
          <mxGeometry width="50" height="50" relative="1" as="geometry">
            <mxPoint x="780" y="550" as="sourcePoint" />
            <mxPoint x="655" y="840" as="targetPoint" />
          </mxGeometry>
        </mxCell>
        <mxCell id="bgKrArl3KTBkpDc7wlW8-66" style="edgeStyle=orthogonalEdgeStyle;rounded=0;orthogonalLoop=1;jettySize=auto;html=1;entryX=0;entryY=0.5;entryDx=0;entryDy=0;" parent="1" source="bgKrArl3KTBkpDc7wlW8-26" target="bgKrArl3KTBkpDc7wlW8-55" edge="1">
          <mxGeometry relative="1" as="geometry">
            <Array as="points">
              <mxPoint x="200" y="921" />
              <mxPoint x="200" y="745" />
            </Array>
          </mxGeometry>
        </mxCell>
        <mxCell id="bgKrArl3KTBkpDc7wlW8-86" style="edgeStyle=orthogonalEdgeStyle;rounded=0;orthogonalLoop=1;jettySize=auto;html=1;entryX=0.5;entryY=1;entryDx=0;entryDy=0;" parent="1" source="bgKrArl3KTBkpDc7wlW8-26" target="bgKrArl3KTBkpDc7wlW8-64" edge="1">
          <mxGeometry relative="1" as="geometry" />
        </mxCell>
        <mxCell id="bgKrArl3KTBkpDc7wlW8-26" value="&lt;font style=&quot;font-size: 24px;&quot;&gt;&lt;b&gt;&lt;u&gt;Apache Flink&lt;br&gt;&lt;/u&gt;&lt;/b&gt;&lt;/font&gt;&lt;br&gt;&lt;font style=&quot;font-size: 14px;&quot;&gt;&lt;b&gt;Stream analytics&lt;br&gt;Near realtime data analysis&lt;/b&gt;&lt;/font&gt;" style="shape=dataStorage;whiteSpace=wrap;html=1;fixedSize=1;rotation=0;" parent="1" vertex="1">
          <mxGeometry x="527.5" y="840" width="255" height="160.94" as="geometry" />
        </mxCell>
        <mxCell id="bgKrArl3KTBkpDc7wlW8-83" style="edgeStyle=orthogonalEdgeStyle;rounded=0;orthogonalLoop=1;jettySize=auto;html=1;entryX=0;entryY=0.5;entryDx=0;entryDy=0;" parent="1" source="bgKrArl3KTBkpDc7wlW8-28" target="bgKrArl3KTBkpDc7wlW8-81" edge="1">
          <mxGeometry relative="1" as="geometry" />
        </mxCell>
        <mxCell id="bgKrArl3KTBkpDc7wlW8-41" style="edgeStyle=orthogonalEdgeStyle;rounded=0;orthogonalLoop=1;jettySize=auto;html=1;entryX=0.5;entryY=0;entryDx=0;entryDy=0;entryPerimeter=0;" parent="1" source="bgKrArl3KTBkpDc7wlW8-27" target="bgKrArl3KTBkpDc7wlW8-40" edge="1">
          <mxGeometry relative="1" as="geometry" />
        </mxCell>
        <mxCell id="bgKrArl3KTBkpDc7wlW8-34" value="&lt;h1&gt;&lt;span style=&quot;background-color: initial;&quot;&gt;&lt;u&gt;Object Storage&lt;/u&gt;&lt;/span&gt;&lt;/h1&gt;&lt;h1&gt;&lt;span style=&quot;background-color: initial;&quot;&gt;&lt;font style=&quot;font-size: 14px;&quot;&gt;Data storage for batch analytics. Contains parquet partitions for Apache Spark&lt;/font&gt;&lt;/span&gt;&lt;br&gt;&lt;/h1&gt;" style="text;html=1;strokeColor=none;fillColor=none;spacing=5;spacingTop=-20;whiteSpace=wrap;overflow=hidden;rounded=0;" parent="1" vertex="1">
          <mxGeometry x="1280" y="390" width="290" height="120" as="geometry" />
        </mxCell>
        <mxCell id="bgKrArl3KTBkpDc7wlW8-43" style="edgeStyle=orthogonalEdgeStyle;rounded=0;orthogonalLoop=1;jettySize=auto;html=1;entryX=0;entryY=0;entryDx=370;entryDy=60;entryPerimeter=0;" parent="1" source="bgKrArl3KTBkpDc7wlW8-40" target="bgKrArl3KTBkpDc7wlW8-28" edge="1">
          <mxGeometry relative="1" as="geometry">
            <Array as="points">
              <mxPoint x="1550" y="830" />
              <mxPoint x="1550" y="570" />
            </Array>
          </mxGeometry>
        </mxCell>
        <mxCell id="bgKrArl3KTBkpDc7wlW8-71" style="edgeStyle=orthogonalEdgeStyle;rounded=0;orthogonalLoop=1;jettySize=auto;html=1;" parent="1" source="bgKrArl3KTBkpDc7wlW8-40" target="bgKrArl3KTBkpDc7wlW8-70" edge="1">
          <mxGeometry relative="1" as="geometry">
            <Array as="points">
              <mxPoint x="1320" y="985" />
            </Array>
          </mxGeometry>
        </mxCell>
        <mxCell id="bgKrArl3KTBkpDc7wlW8-45" value="&lt;b&gt;&lt;font style=&quot;font-size: 22px;&quot;&gt;&lt;u&gt;Reports&lt;/u&gt;&lt;/font&gt;&lt;/b&gt;" style="text;html=1;strokeColor=none;fillColor=none;align=center;verticalAlign=middle;whiteSpace=wrap;rounded=0;" parent="1" vertex="1">
          <mxGeometry x="1390" y="805" width="180" height="30" as="geometry" />
        </mxCell>
        <mxCell id="bgKrArl3KTBkpDc7wlW8-67" style="edgeStyle=orthogonalEdgeStyle;rounded=0;orthogonalLoop=1;jettySize=auto;html=1;entryX=-0.001;entryY=0.612;entryDx=0;entryDy=0;entryPerimeter=0;" parent="1" source="bgKrArl3KTBkpDc7wlW8-47" target="bgKrArl3KTBkpDc7wlW8-27" edge="1">
          <mxGeometry relative="1" as="geometry" />
        </mxCell>
        <mxCell id="bgKrArl3KTBkpDc7wlW8-47" value="" style="shape=step;perimeter=stepPerimeter;whiteSpace=wrap;html=1;fixedSize=1;" parent="1" vertex="1">
          <mxGeometry x="340" y="615" width="630" height="80" as="geometry" />
        </mxCell>
        <mxCell id="bgKrArl3KTBkpDc7wlW8-48" value="" style="shape=note;whiteSpace=wrap;html=1;backgroundOutline=1;darkOpacity=0.05;" parent="1" vertex="1">
          <mxGeometry x="370" y="620" width="50" height="70" as="geometry" />
        </mxCell>
        <mxCell id="bgKrArl3KTBkpDc7wlW8-49" value="" style="shape=note;whiteSpace=wrap;html=1;backgroundOutline=1;darkOpacity=0.05;" parent="1" vertex="1">
          <mxGeometry x="440" y="620" width="50" height="70" as="geometry" />
        </mxCell>
        <mxCell id="bgKrArl3KTBkpDc7wlW8-50" value="" style="shape=note;whiteSpace=wrap;html=1;backgroundOutline=1;darkOpacity=0.05;" parent="1" vertex="1">
          <mxGeometry x="510" y="620" width="50" height="70" as="geometry" />
        </mxCell>
        <mxCell id="bgKrArl3KTBkpDc7wlW8-51" value="" style="endArrow=none;dashed=1;html=1;dashPattern=1 3;strokeWidth=2;rounded=0;" parent="1" edge="1">
          <mxGeometry width="50" height="50" relative="1" as="geometry">
            <mxPoint x="580" y="689" as="sourcePoint" />
            <mxPoint x="740" y="689" as="targetPoint" />
          </mxGeometry>
        </mxCell>
        <mxCell id="bgKrArl3KTBkpDc7wlW8-52" value="" style="shape=note;whiteSpace=wrap;html=1;backgroundOutline=1;darkOpacity=0.05;" parent="1" vertex="1">
          <mxGeometry x="750" y="620" width="50" height="70" as="geometry" />
        </mxCell>
        <mxCell id="bgKrArl3KTBkpDc7wlW8-53" value="" style="shape=note;whiteSpace=wrap;html=1;backgroundOutline=1;darkOpacity=0.05;" parent="1" vertex="1">
          <mxGeometry x="820" y="620" width="50" height="70" as="geometry" />
        </mxCell>
        <mxCell id="bgKrArl3KTBkpDc7wlW8-54" value="" style="shape=note;whiteSpace=wrap;html=1;backgroundOutline=1;darkOpacity=0.05;" parent="1" vertex="1">
          <mxGeometry x="890" y="620" width="50" height="70" as="geometry" />
        </mxCell>
        <mxCell id="bgKrArl3KTBkpDc7wlW8-68" style="edgeStyle=orthogonalEdgeStyle;rounded=0;orthogonalLoop=1;jettySize=auto;html=1;entryX=-0.001;entryY=0.592;entryDx=0;entryDy=0;entryPerimeter=0;" parent="1" source="bgKrArl3KTBkpDc7wlW8-55" target="bgKrArl3KTBkpDc7wlW8-27" edge="1">
          <mxGeometry relative="1" as="geometry">
            <Array as="points">
              <mxPoint x="1055" y="720" />
              <mxPoint x="1055" y="559" />
            </Array>
          </mxGeometry>
        </mxCell>
        <mxCell id="bgKrArl3KTBkpDc7wlW8-72" style="edgeStyle=orthogonalEdgeStyle;rounded=0;orthogonalLoop=1;jettySize=auto;html=1;entryX=0.548;entryY=-0.004;entryDx=0;entryDy=0;entryPerimeter=0;" parent="1" source="bgKrArl3KTBkpDc7wlW8-55" target="bgKrArl3KTBkpDc7wlW8-70" edge="1">
          <mxGeometry relative="1" as="geometry">
            <Array as="points">
              <mxPoint x="1061" y="745" />
            </Array>
          </mxGeometry>
        </mxCell>
        <mxCell id="bgKrArl3KTBkpDc7wlW8-55" value="" style="shape=step;perimeter=stepPerimeter;whiteSpace=wrap;html=1;fixedSize=1;" parent="1" vertex="1">
          <mxGeometry x="340" y="705" width="630" height="80" as="geometry" />
        </mxCell>
        <mxCell id="bgKrArl3KTBkpDc7wlW8-56" value="" style="shape=note;whiteSpace=wrap;html=1;backgroundOutline=1;darkOpacity=0.05;" parent="1" vertex="1">
          <mxGeometry x="370" y="710" width="50" height="70" as="geometry" />
        </mxCell>
        <mxCell id="bgKrArl3KTBkpDc7wlW8-57" value="" style="shape=note;whiteSpace=wrap;html=1;backgroundOutline=1;darkOpacity=0.05;" parent="1" vertex="1">
          <mxGeometry x="440" y="710" width="50" height="70" as="geometry" />
        </mxCell>
        <mxCell id="bgKrArl3KTBkpDc7wlW8-58" value="" style="shape=note;whiteSpace=wrap;html=1;backgroundOutline=1;darkOpacity=0.05;" parent="1" vertex="1">
          <mxGeometry x="510" y="710" width="50" height="70" as="geometry" />
        </mxCell>
        <mxCell id="bgKrArl3KTBkpDc7wlW8-59" value="" style="endArrow=none;dashed=1;html=1;dashPattern=1 3;strokeWidth=2;rounded=0;" parent="1" edge="1">
          <mxGeometry width="50" height="50" relative="1" as="geometry">
            <mxPoint x="580" y="779" as="sourcePoint" />
            <mxPoint x="740" y="779" as="targetPoint" />
          </mxGeometry>
        </mxCell>
        <mxCell id="bgKrArl3KTBkpDc7wlW8-60" value="" style="shape=note;whiteSpace=wrap;html=1;backgroundOutline=1;darkOpacity=0.05;" parent="1" vertex="1">
          <mxGeometry x="750" y="710" width="50" height="70" as="geometry" />
        </mxCell>
        <mxCell id="bgKrArl3KTBkpDc7wlW8-61" value="" style="shape=note;whiteSpace=wrap;html=1;backgroundOutline=1;darkOpacity=0.05;" parent="1" vertex="1">
          <mxGeometry x="820" y="710" width="50" height="70" as="geometry" />
        </mxCell>
        <mxCell id="bgKrArl3KTBkpDc7wlW8-62" value="" style="shape=note;whiteSpace=wrap;html=1;backgroundOutline=1;darkOpacity=0.05;" parent="1" vertex="1">
          <mxGeometry x="890" y="710" width="50" height="70" as="geometry" />
        </mxCell>
        <mxCell id="bgKrArl3KTBkpDc7wlW8-65" style="edgeStyle=orthogonalEdgeStyle;rounded=0;orthogonalLoop=1;jettySize=auto;html=1;entryX=0;entryY=0.5;entryDx=0;entryDy=0;" parent="1" source="bgKrArl3KTBkpDc7wlW8-64" target="bgKrArl3KTBkpDc7wlW8-47" edge="1">
          <mxGeometry relative="1" as="geometry" />
        </mxCell>
        <mxCell id="bgKrArl3KTBkpDc7wlW8-106" style="edgeStyle=orthogonalEdgeStyle;rounded=0;orthogonalLoop=1;jettySize=auto;html=1;entryX=0;entryY=0.5;entryDx=0;entryDy=0;dashed=1;dashPattern=1 4;" parent="1" source="bgKrArl3KTBkpDc7wlW8-64" target="bgKrArl3KTBkpDc7wlW8-99" edge="1">
          <mxGeometry relative="1" as="geometry">
            <Array as="points">
              <mxPoint x="110" y="480" />
              <mxPoint x="580" y="480" />
              <mxPoint x="580" y="160" />
            </Array>
          </mxGeometry>
        </mxCell>
        <mxCell id="bgKrArl3KTBkpDc7wlW8-64" value="&lt;font style=&quot;font-size: 18px;&quot;&gt;&lt;b&gt;Managed Scrapers&lt;/b&gt;&lt;/font&gt;" style="rounded=1;whiteSpace=wrap;html=1;" parent="1" vertex="1">
          <mxGeometry y="600" width="220" height="110" as="geometry" />
        </mxCell>
        <mxCell id="bgKrArl3KTBkpDc7wlW8-79" style="edgeStyle=orthogonalEdgeStyle;rounded=0;orthogonalLoop=1;jettySize=auto;html=1;entryX=0;entryY=0;entryDx=370;entryDy=60;entryPerimeter=0;" parent="1" source="bgKrArl3KTBkpDc7wlW8-70" target="bgKrArl3KTBkpDc7wlW8-28" edge="1">
          <mxGeometry relative="1" as="geometry">
            <Array as="points">
              <mxPoint x="1050" y="1120" />
              <mxPoint x="1550" y="1120" />
              <mxPoint x="1550" y="570" />
            </Array>
          </mxGeometry>
        </mxCell>
        <mxCell id="bgKrArl3KTBkpDc7wlW8-70" value="&lt;font style=&quot;font-size: 18px;&quot;&gt;&lt;b&gt;AI Training Hub&lt;/b&gt;&lt;/font&gt;" style="rounded=1;whiteSpace=wrap;html=1;" parent="1" vertex="1">
          <mxGeometry x="940" y="930" width="220" height="110" as="geometry" />
        </mxCell>
        <mxCell id="bgKrArl3KTBkpDc7wlW8-73" value="&lt;b&gt;&lt;font style=&quot;font-size: 22px;&quot;&gt;&lt;u&gt;Initial Models&lt;/u&gt;&lt;/font&gt;&lt;/b&gt;" style="text;html=1;strokeColor=none;fillColor=none;align=center;verticalAlign=middle;whiteSpace=wrap;rounded=0;" parent="1" vertex="1">
          <mxGeometry x="1160" y="990" width="180" height="30" as="geometry" />
        </mxCell>
        <mxCell id="bgKrArl3KTBkpDc7wlW8-74" value="&lt;b&gt;&lt;font style=&quot;font-size: 22px;&quot;&gt;&lt;u&gt;Stream data&lt;/u&gt;&lt;/font&gt;&lt;/b&gt;" style="text;html=1;strokeColor=none;fillColor=none;align=center;verticalAlign=middle;whiteSpace=wrap;rounded=0;" parent="1" vertex="1">
          <mxGeometry x="1040" y="835" width="180" height="30" as="geometry" />
        </mxCell>
        <mxCell id="bgKrArl3KTBkpDc7wlW8-77" value="" style="endArrow=classic;html=1;rounded=0;exitX=0;exitY=0.5;exitDx=0;exitDy=0;entryX=0.544;entryY=-0.022;entryDx=0;entryDy=0;entryPerimeter=0;" parent="1" source="bgKrArl3KTBkpDc7wlW8-70" target="bgKrArl3KTBkpDc7wlW8-70" edge="1">
          <mxGeometry width="50" height="50" relative="1" as="geometry">
            <mxPoint x="780" y="750" as="sourcePoint" />
            <mxPoint x="1040" y="880" as="targetPoint" />
            <Array as="points">
              <mxPoint x="880" y="985" />
              <mxPoint x="880" y="880" />
              <mxPoint x="1060" y="880" />
            </Array>
          </mxGeometry>
        </mxCell>
        <mxCell id="bgKrArl3KTBkpDc7wlW8-78" value="&lt;b&gt;&lt;font style=&quot;font-size: 22px;&quot;&gt;&lt;u&gt;Training loop&lt;/u&gt;&lt;/font&gt;&lt;/b&gt;" style="text;html=1;strokeColor=none;fillColor=none;align=center;verticalAlign=middle;whiteSpace=wrap;rounded=0;" parent="1" vertex="1">
          <mxGeometry x="850" y="850" width="180" height="30" as="geometry" />
        </mxCell>
        <mxCell id="bgKrArl3KTBkpDc7wlW8-80" value="&lt;b&gt;&lt;font style=&quot;font-size: 22px;&quot;&gt;&lt;u&gt;Reports and models&lt;/u&gt;&lt;/font&gt;&lt;/b&gt;" style="text;html=1;strokeColor=none;fillColor=none;align=center;verticalAlign=middle;whiteSpace=wrap;rounded=0;" parent="1" vertex="1">
          <mxGeometry x="1240" y="1090" width="220" height="30" as="geometry" />
        </mxCell>
        <mxCell id="bgKrArl3KTBkpDc7wlW8-81" value="&lt;span style=&quot;font-size: 18px;&quot;&gt;&lt;b&gt;Prediction system&lt;/b&gt;&lt;/span&gt;" style="rounded=1;whiteSpace=wrap;html=1;" parent="1" vertex="1">
          <mxGeometry x="1740" y="505" width="220" height="110" as="geometry" />
        </mxCell>
        <mxCell id="bgKrArl3KTBkpDc7wlW8-84" value="&lt;b&gt;&lt;font style=&quot;font-size: 22px;&quot;&gt;&lt;u&gt;Stream data&lt;/u&gt;&lt;/font&gt;&lt;/b&gt;" style="text;html=1;strokeColor=none;fillColor=none;align=center;verticalAlign=middle;whiteSpace=wrap;rounded=0;" parent="1" vertex="1">
          <mxGeometry x="782.5" y="310" width="180" height="30" as="geometry" />
        </mxCell>
        <mxCell id="bgKrArl3KTBkpDc7wlW8-108" style="edgeStyle=orthogonalEdgeStyle;rounded=0;orthogonalLoop=1;jettySize=auto;html=1;dashed=1;dashPattern=1 4;entryX=0.346;entryY=1.022;entryDx=0;entryDy=0;entryPerimeter=0;" parent="1" source="bgKrArl3KTBkpDc7wlW8-70" target="bgKrArl3KTBkpDc7wlW8-99" edge="1">
          <mxGeometry relative="1" as="geometry">
            <Array as="points">
              <mxPoint x="1263" y="985" />
            </Array>
          </mxGeometry>
        </mxCell>
        <mxCell id="bgKrArl3KTBkpDc7wlW8-28" value="" style="shape=cube;whiteSpace=wrap;html=1;boundedLbl=1;backgroundOutline=1;darkOpacity=0.05;darkOpacity2=0.1;" parent="1" vertex="1">
          <mxGeometry x="1160" y="510" width="370" height="100" as="geometry" />
        </mxCell>
        <mxCell id="bgKrArl3KTBkpDc7wlW8-27" value="" style="shape=cube;whiteSpace=wrap;html=1;boundedLbl=1;backgroundOutline=1;darkOpacity=0.05;darkOpacity2=0.1;" parent="1" vertex="1">
          <mxGeometry x="1140" y="500" width="370" height="100" as="geometry" />
        </mxCell>
        <mxCell id="bgKrArl3KTBkpDc7wlW8-85" value="&lt;b&gt;&lt;font style=&quot;font-size: 22px;&quot;&gt;&lt;u&gt;Trained models&lt;/u&gt;&lt;/font&gt;&lt;/b&gt;" style="text;html=1;strokeColor=none;fillColor=none;align=center;verticalAlign=middle;whiteSpace=wrap;rounded=0;" parent="1" vertex="1">
          <mxGeometry x="1530" y="535" width="180" height="30" as="geometry" />
        </mxCell>
        <mxCell id="bgKrArl3KTBkpDc7wlW8-87" value="&lt;span style=&quot;font-size: 22px;&quot;&gt;&lt;b&gt;&lt;u&gt;Unmanaged&lt;br&gt;Scrapers&lt;br&gt;Data&lt;br&gt;&lt;/u&gt;&lt;/b&gt;&lt;/span&gt;" style="text;html=1;strokeColor=none;fillColor=none;align=center;verticalAlign=middle;whiteSpace=wrap;rounded=0;" parent="1" vertex="1">
          <mxGeometry x="565" y="510" width="180" height="95" as="geometry" />
        </mxCell>
        <mxCell id="bgKrArl3KTBkpDc7wlW8-88" value="&lt;b&gt;&lt;font style=&quot;font-size: 22px;&quot;&gt;&lt;u&gt;Managed Scrapers&lt;br&gt;Data&lt;br&gt;&lt;/u&gt;&lt;/font&gt;&lt;/b&gt;" style="text;html=1;strokeColor=none;fillColor=none;align=center;verticalAlign=middle;whiteSpace=wrap;rounded=0;" parent="1" vertex="1">
          <mxGeometry x="565" y="610" width="180" height="90" as="geometry" />
        </mxCell>
        <mxCell id="bgKrArl3KTBkpDc7wlW8-89" value="&lt;b&gt;&lt;font style=&quot;font-size: 22px;&quot;&gt;&lt;u&gt;Streaming&lt;br&gt;Analytics&lt;br&gt;Results&lt;br&gt;&lt;/u&gt;&lt;/font&gt;&lt;/b&gt;" style="text;html=1;strokeColor=none;fillColor=none;align=center;verticalAlign=middle;whiteSpace=wrap;rounded=0;" parent="1" vertex="1">
          <mxGeometry x="565" y="700" width="180" height="90" as="geometry" />
        </mxCell>
        <mxCell id="bgKrArl3KTBkpDc7wlW8-96" value="&lt;b&gt;&lt;font style=&quot;font-size: 22px;&quot;&gt;&lt;u&gt;Monitoring&lt;/u&gt;&lt;/font&gt;&lt;/b&gt;" style="text;html=1;strokeColor=none;fillColor=none;align=center;verticalAlign=middle;whiteSpace=wrap;rounded=0;" parent="1" vertex="1">
          <mxGeometry x="1080" y="30" width="180" height="30" as="geometry" />
        </mxCell>
        <mxCell id="bgKrArl3KTBkpDc7wlW8-99" value="" style="rounded=0;whiteSpace=wrap;html=1;fillColor=none;" parent="1" vertex="1">
          <mxGeometry x="1100" y="30" width="470" height="260" as="geometry" />
        </mxCell>
        <mxCell id="bgKrArl3KTBkpDc7wlW8-101" value="&lt;h1&gt;&lt;span style=&quot;background-color: initial;&quot;&gt;&lt;u&gt;Prometheus&lt;/u&gt;&lt;/span&gt;&lt;/h1&gt;&lt;h1 style=&quot;font-size: 16px;&quot;&gt;&lt;font style=&quot;font-size: 16px;&quot;&gt;&lt;span style=&quot;background-color: initial; font-weight: normal;&quot;&gt;Scraping data from:&lt;/span&gt;&lt;br&gt;&lt;/font&gt;&lt;/h1&gt;&lt;div style=&quot;font-size: 16px;&quot;&gt;&lt;ul style=&quot;&quot;&gt;&lt;li style=&quot;&quot;&gt;&lt;span style=&quot;background-color: initial; font-weight: normal;&quot;&gt;&lt;font style=&quot;font-size: 16px;&quot;&gt;Scrapers&lt;/font&gt;&lt;/span&gt;&lt;/li&gt;&lt;li style=&quot;&quot;&gt;&lt;span style=&quot;background-color: initial; font-weight: normal;&quot;&gt;&lt;font style=&quot;font-size: 16px;&quot;&gt;AI training&lt;/font&gt;&lt;/span&gt;&lt;/li&gt;&lt;li style=&quot;&quot;&gt;&lt;span style=&quot;background-color: initial; font-weight: normal;&quot;&gt;&lt;font style=&quot;font-size: 16px;&quot;&gt;Kafka&lt;/font&gt;&lt;/span&gt;&lt;/li&gt;&lt;li style=&quot;&quot;&gt;&lt;span style=&quot;background-color: initial; font-weight: normal;&quot;&gt;&lt;font style=&quot;font-size: 16px;&quot;&gt;Flink&lt;/font&gt;&lt;/span&gt;&lt;/li&gt;&lt;li style=&quot;&quot;&gt;&lt;span style=&quot;background-color: initial; font-weight: normal;&quot;&gt;&lt;font style=&quot;font-size: 16px;&quot;&gt;Spark&lt;/font&gt;&lt;/span&gt;&lt;/li&gt;&lt;li style=&quot;&quot;&gt;&lt;span style=&quot;background-color: initial; font-weight: normal;&quot;&gt;&lt;font style=&quot;font-size: 16px;&quot;&gt;Prediction System&lt;/font&gt;&lt;/span&gt;&lt;/li&gt;&lt;/ul&gt;&lt;/div&gt;" style="text;html=1;strokeColor=none;fillColor=none;spacing=5;spacingTop=-20;whiteSpace=wrap;overflow=hidden;rounded=0;" parent="1" vertex="1">
          <mxGeometry x="1120" y="80" width="290" height="200" as="geometry" />
        </mxCell>
        <mxCell id="bgKrArl3KTBkpDc7wlW8-103" value="&lt;h1&gt;&lt;span style=&quot;background-color: initial;&quot;&gt;&lt;u&gt;Grafana&lt;/u&gt;&lt;/span&gt;&lt;/h1&gt;&lt;h1 style=&quot;font-size: 16px;&quot;&gt;&lt;span style=&quot;font-weight: 400;&quot;&gt;Data visualization based on data scraped from prometheus.&lt;/span&gt;&lt;/h1&gt;&lt;div style=&quot;font-size: 16px;&quot;&gt;GUI accessible from&lt;/div&gt;&lt;div style=&quot;font-size: 16px;&quot;&gt;Web Browser level&lt;/div&gt;" style="text;html=1;strokeColor=none;fillColor=none;spacing=5;spacingTop=-20;whiteSpace=wrap;overflow=hidden;rounded=0;" parent="1" vertex="1">
          <mxGeometry x="1320" y="80" width="290" height="200" as="geometry" />
        </mxCell>
        <mxCell id="bgKrArl3KTBkpDc7wlW8-32" value="&lt;b&gt;&lt;font style=&quot;font-size: 22px;&quot;&gt;&lt;u&gt;Object Storage&lt;/u&gt;&lt;/font&gt;&lt;/b&gt;" style="text;html=1;strokeColor=none;fillColor=none;align=center;verticalAlign=middle;whiteSpace=wrap;rounded=0;" parent="1" vertex="1">
          <mxGeometry x="1235" y="545" width="180" height="30" as="geometry" />
        </mxCell>
        <mxCell id="sFMfwij8IVC0QrUWegLS-4" style="edgeStyle=orthogonalEdgeStyle;rounded=0;orthogonalLoop=1;jettySize=auto;html=1;entryX=1;entryY=0.152;entryDx=0;entryDy=0;entryPerimeter=0;dashed=1;dashPattern=1 4;" edge="1" parent="1" source="bgKrArl3KTBkpDc7wlW8-81" target="bgKrArl3KTBkpDc7wlW8-99">
          <mxGeometry relative="1" as="geometry">
            <Array as="points">
              <mxPoint x="1870" y="70" />
            </Array>
          </mxGeometry>
        </mxCell>
        <mxCell id="bgKrArl3KTBkpDc7wlW8-40" value="&lt;u style=&quot;font-size: 24px;&quot;&gt;&lt;b&gt;Batch Analytics&lt;br&gt;&lt;/b&gt;&lt;/u&gt;&lt;br&gt;&lt;font style=&quot;font-size: 14px;&quot;&gt;&lt;b&gt;Jupyter Notebook&lt;br&gt;+&lt;br&gt;Apache Spark&lt;/b&gt;&lt;/font&gt;" style="shape=note;whiteSpace=wrap;html=1;backgroundOutline=1;darkOpacity=0.05;" parent="1" vertex="1">
          <mxGeometry x="1235" y="710" width="180" height="220" as="geometry" />
        </mxCell>
      </root>
    </mxGraphModel>
  </diagram>
</mxfile>
